<svg width="201" height="40" viewBox="0 0 201 40" fill="none" xmlns="http://www.w3.org/2000/svg">
<rect width="40" height="40" rx="6" fill="black"/>
<path d="M31.9994 11.7429C31.9994 13.2577 30.7714 14.4857 29.2565 14.4857C28.6567 14.4857 27.1854 14.4857 26.6841 14.4857C26.5895 14.4857 26.5137 14.4098 26.5137 14.3151C26.5137 13.8218 26.5137 12.3882 26.5137 11.7429C26.5137 10.228 27.7417 9 29.2565 9C30.7714 9 31.9994 10.228 31.9994 11.7429Z" fill="#356BFD"/>
<rect x="8" y="10.0293" width="4.11429" height="21.2571" rx="0.171429" fill="white"/>
<path d="M11.1152 18.2579H17.2581L21.069 10.128C21.0972 10.0678 21.1577 10.0293 21.2242 10.0293H24.8767C25.0016 10.0293 25.0845 10.1586 25.0325 10.2722L23.2581 14.1436L22.1933 16.4329C21.7812 17.319 21.0015 17.9799 20.0599 18.2415V18.2415C20.0506 18.2441 20.0525 18.2579 20.0622 18.2579H22.4009C24.6732 18.2579 26.5152 20.0999 26.5152 22.3722V31.115C26.5152 31.2097 26.4385 31.2864 26.3438 31.2864H22.5724C22.4777 31.2864 22.4009 31.2097 22.4009 31.115V19.8124C22.4009 19.7745 22.3459 19.7697 22.3393 19.8071V19.8071C22.0775 21.2906 20.7884 22.3722 19.2819 22.3722H17.2581H11.1152V18.2579Z" fill="white"/>
<path d="M200.845 25.063H192.373V27.511C192.373 28.279 192.325 28.903 192.229 29.383C192.133 29.863 191.965 30.239 191.725 30.511C191.485 30.799 191.165 31.007 190.765 31.135C190.365 31.263 189.869 31.351 189.277 31.399L187.237 31.591L186.229 28.615L187.981 28.423C188.237 28.391 188.445 28.351 188.605 28.303C188.765 28.255 188.885 28.167 188.965 28.039C189.061 27.895 189.125 27.695 189.157 27.439C189.189 27.183 189.205 26.839 189.205 26.407V25.063H180.373V22.063H189.205V19.687H182.173V16.687H189.205V14.191C187.797 14.271 186.453 14.335 185.173 14.383C183.893 14.431 182.773 14.463 181.813 14.479L181.597 11.623C182.349 11.623 183.189 11.607 184.117 11.575C185.045 11.543 186.021 11.503 187.045 11.455C188.069 11.391 189.109 11.319 190.165 11.239C191.237 11.159 192.285 11.071 193.309 10.975C194.349 10.863 195.341 10.743 196.285 10.615C197.245 10.487 198.125 10.351 198.925 10.207L199.285 13.207C198.309 13.367 197.229 13.511 196.045 13.639C194.861 13.767 193.637 13.879 192.373 13.975V16.687H199.069V19.687H192.373V22.063H200.845V25.063Z" fill="black"/>
<path d="M176.716 13.6151L176.644 16.4951C176.628 17.8711 176.604 19.2311 176.572 20.5751C176.556 21.1511 176.54 21.7591 176.524 22.3991C176.508 23.0231 176.484 23.6471 176.452 24.2711C176.436 24.8951 176.412 25.5111 176.38 26.1191C176.364 26.7111 176.34 27.2711 176.308 27.7991C176.276 28.3111 176.196 28.7351 176.068 29.0711C175.956 29.4071 175.78 29.6791 175.54 29.8871C175.316 30.1111 175.028 30.2791 174.676 30.3911C174.34 30.5031 173.94 30.5831 173.476 30.6311L171.196 30.8471L170.38 27.8951L172.372 27.7031C172.724 27.6711 172.964 27.5511 173.092 27.3431C173.236 27.1191 173.332 26.6951 173.38 26.0711C173.428 25.3191 173.468 24.5191 173.5 23.6711C173.548 22.8071 173.58 21.9511 173.596 21.1031C173.628 20.2391 173.652 19.4151 173.668 18.6311C173.684 17.8311 173.7 17.1191 173.716 16.4951H171.676C171.66 16.5751 171.652 16.6631 171.652 16.7591C171.652 16.8551 171.652 16.9431 171.652 17.0231C171.604 18.4311 171.532 19.7831 171.436 21.0791C171.356 22.3751 171.14 23.6391 170.788 24.8711C170.436 26.0871 169.892 27.2791 169.156 28.4471C168.42 29.6151 167.388 30.7751 166.06 31.9271L164.164 30.0791C164.532 29.7431 164.868 29.4071 165.172 29.0711C165.476 28.7511 165.756 28.4311 166.012 28.1111C165.276 28.2551 164.468 28.4151 163.588 28.5911C162.708 28.7671 161.836 28.9271 160.972 29.0711C160.108 29.2311 159.292 29.3751 158.524 29.5031C157.756 29.6471 157.116 29.7511 156.604 29.8151L156.268 26.6951C156.428 26.6791 156.652 26.6551 156.94 26.6231C157.228 26.5911 157.556 26.5511 157.924 26.5031V10.7831H166.252V25.1351C166.428 25.1031 166.596 25.0711 166.756 25.0391C166.916 25.0071 167.06 24.9751 167.188 24.9431L167.26 26.2391C167.58 25.6311 167.828 25.0071 168.004 24.3671C168.196 23.7111 168.348 23.0231 168.46 22.3031C168.572 21.5671 168.644 20.7911 168.676 19.9751C168.724 19.1431 168.764 18.2311 168.796 17.2391C168.796 17.1271 168.796 17.0151 168.796 16.9031C168.812 16.7751 168.82 16.6391 168.82 16.4951H167.044V13.6151H168.892L168.94 9.87109L171.796 10.0151V10.9991C171.796 11.3191 171.788 11.7031 171.772 12.1511C171.772 12.5831 171.764 13.0711 171.748 13.6151H176.716ZM160.684 13.5911V15.8711H163.42V13.5911H160.684ZM163.42 18.5591H160.684V20.6711H163.42V18.5591ZM160.684 26.0951L163.42 25.6631V23.3591H160.684V26.0951Z" fill="black"/>
<path d="M146.538 20.2872C145.802 20.2552 145.25 20.0472 144.882 19.6632C144.514 19.2632 144.33 18.5992 144.33 17.6712V16.2072L142.746 17.6952H143.37V28.6152C143.37 29.1112 143.322 29.5272 143.226 29.8632C143.146 30.1992 143.002 30.4632 142.794 30.6552C142.602 30.8632 142.33 31.0152 141.978 31.1112C141.642 31.2232 141.21 31.3032 140.682 31.3512L139.578 31.4472L138.81 28.7832L140.058 28.6632C140.33 28.6312 140.506 28.5512 140.586 28.4232C140.666 28.2952 140.706 28.0072 140.706 27.5592V26.8392H136.794V31.3752H134.13V17.6952H142.53L141.858 16.6152C141.49 16.6312 141.058 16.6552 140.562 16.6872C140.066 16.7032 139.554 16.7272 139.026 16.7592C138.498 16.7912 137.97 16.8232 137.442 16.8552C136.93 16.8872 136.466 16.9192 136.05 16.9512C135.666 16.9832 135.306 17.0232 134.97 17.0712C134.65 17.1032 134.354 17.1512 134.082 17.2152L133.41 14.4312C133.634 14.3832 133.794 14.3032 133.89 14.1912C134.002 14.0792 134.122 13.9832 134.25 13.9032C134.394 13.7752 134.594 13.5512 134.85 13.2312C135.122 12.9112 135.402 12.5512 135.69 12.1512C135.978 11.7352 136.266 11.3032 136.554 10.8552C136.842 10.3912 137.082 9.95116 137.274 9.53516L139.938 10.8072C139.73 11.1592 139.498 11.5272 139.242 11.9112C139.002 12.2792 138.762 12.6312 138.522 12.9672C138.282 13.3032 138.05 13.5992 137.826 13.8552C137.618 14.1112 137.434 14.2952 137.274 14.4072C137.706 14.3752 138.178 14.3512 138.69 14.3352C139.202 14.3032 139.714 14.2712 140.226 14.2392C140.018 13.9672 139.826 13.7272 139.65 13.5192C139.474 13.2952 139.314 13.0952 139.17 12.9192L141.186 11.3352C141.41 11.5752 141.658 11.8632 141.93 12.1992C142.202 12.5192 142.474 12.8632 142.746 13.2312C143.034 13.5832 143.314 13.9432 143.586 14.3112C143.858 14.6632 144.106 15.0072 144.33 15.3432V10.0632L147.066 10.2072V13.0392C147.482 12.8632 147.914 12.6792 148.362 12.4872C148.81 12.2792 149.234 12.0712 149.634 11.8632C150.05 11.6552 150.434 11.4552 150.786 11.2632C151.138 11.0712 151.434 10.8872 151.674 10.7112L152.922 13.2792C152.602 13.4712 152.21 13.6872 151.746 13.9272C151.282 14.1512 150.778 14.3832 150.234 14.6232C149.706 14.8632 149.162 15.1032 148.602 15.3432C148.058 15.5672 147.546 15.7752 147.066 15.9672V16.7352C147.066 17.1192 147.122 17.3592 147.234 17.4552C147.346 17.5352 147.578 17.5912 147.93 17.6232C148.538 17.6712 149.162 17.6712 149.802 17.6232C150.282 17.5912 150.602 17.5272 150.762 17.4312C150.938 17.3192 151.066 17.0792 151.146 16.7112C151.194 16.5032 151.226 16.3192 151.242 16.1592C151.274 15.9832 151.306 15.7592 151.338 15.4872L153.954 16.4232C153.922 16.6792 153.89 16.9112 153.858 17.1192C153.826 17.3112 153.778 17.5592 153.714 17.8632C153.618 18.3272 153.498 18.7112 153.354 19.0152C153.21 19.3192 153.018 19.5592 152.778 19.7352C152.554 19.9112 152.266 20.0472 151.914 20.1432C151.578 20.2232 151.17 20.2712 150.69 20.2872C149.298 20.3512 147.914 20.3512 146.538 20.2872ZM136.794 20.0712V21.1032H140.682V20.0712H136.794ZM154.098 26.5272C154.082 26.7512 154.042 27.0552 153.978 27.4392C153.93 27.8072 153.882 28.1432 153.834 28.4472C153.738 28.9112 153.61 29.2872 153.45 29.5752C153.306 29.8792 153.106 30.1272 152.85 30.3192C152.594 30.5112 152.282 30.6472 151.914 30.7272C151.562 30.8232 151.13 30.8872 150.618 30.9192C149.29 30.9992 147.97 30.9992 146.658 30.9192C145.89 30.8872 145.314 30.6632 144.93 30.2472C144.546 29.8472 144.354 29.1912 144.354 28.2792V20.7672L147.066 20.9112V23.3832C147.498 23.1912 147.938 22.9912 148.386 22.7832C148.834 22.5592 149.266 22.3352 149.682 22.1112C150.098 21.8872 150.49 21.6712 150.858 21.4632C151.242 21.2392 151.57 21.0312 151.842 20.8392L153.21 23.1432C152.842 23.3832 152.41 23.6392 151.914 23.9112C151.418 24.1672 150.89 24.4232 150.33 24.6792C149.786 24.9352 149.226 25.1912 148.65 25.4472C148.09 25.6872 147.562 25.9032 147.066 26.0952V27.3432C147.066 27.7272 147.146 27.9752 147.306 28.0872C147.466 28.1992 147.73 28.2712 148.098 28.3032C148.642 28.3512 149.194 28.3512 149.754 28.3032C150.01 28.2872 150.226 28.2632 150.402 28.2312C150.578 28.1832 150.722 28.1192 150.834 28.0392C150.946 27.9592 151.034 27.8552 151.098 27.7272C151.162 27.5832 151.218 27.3992 151.266 27.1752C151.298 26.9992 151.33 26.7752 151.362 26.5032C151.41 26.2152 151.45 25.9032 151.482 25.5672L154.098 26.5272ZM140.706 24.4632L140.682 23.4072H136.794V24.4632H140.706Z" fill="black"/>
<path d="M119.267 21.1755H127.451V30.9915H111.995V21.9435L110.531 22.6155L109.043 20.0715C110.131 19.6555 111.043 19.2315 111.779 18.7995C112.515 18.3515 113.091 17.8235 113.507 17.2155H109.739V14.9355H110.891L109.547 13.9275C110.155 13.2075 110.683 12.4475 111.131 11.6475C111.579 10.8315 111.923 10.0955 112.163 9.43945L114.731 9.89545C114.651 10.1035 114.563 10.3195 114.467 10.5435C114.387 10.7675 114.299 10.9995 114.203 11.2395H119.987V13.5435H116.963C116.963 13.7675 116.955 13.9755 116.939 14.1675C116.939 14.3595 116.939 14.5195 116.939 14.6475V14.9355H120.347V17.2155H117.131C117.739 17.5355 118.355 17.8635 118.979 18.1995C119.603 18.5195 120.147 18.8155 120.611 19.0875L119.267 21.1755ZM129.467 11.1195V20.0715H120.995V11.1195H129.467ZM114.251 14.9355V14.7675C114.267 14.6075 114.275 14.4235 114.275 14.2155C114.275 13.9915 114.275 13.7675 114.275 13.5435H113.003C112.859 13.7835 112.707 14.0235 112.547 14.2635C112.403 14.4875 112.251 14.7115 112.091 14.9355H114.251ZM126.851 13.5915H123.659V17.5035H126.851V13.5915ZM115.787 19.1595C115.259 19.8795 114.475 20.5515 113.435 21.1755H118.907C118.459 20.8555 117.955 20.5195 117.395 20.1675C116.835 19.8155 116.299 19.4795 115.787 19.1595ZM124.451 23.5035H115.019V24.8955H124.451V23.5035ZM124.451 28.5915V27.1995H115.019V28.5915H124.451Z" fill="black"/>
<path d="M101.767 13.6242C101.367 13.6242 101.034 13.6076 100.767 13.5742C100.501 13.5242 100.292 13.4326 100.142 13.2992C99.9922 13.1659 99.8839 12.9742 99.8172 12.7242C99.7672 12.4742 99.7422 12.1326 99.7422 11.6992C99.7422 11.2826 99.7672 10.9492 99.8172 10.6992C99.8839 10.4492 99.9922 10.2576 100.142 10.1242C100.292 9.99089 100.501 9.90755 100.767 9.87422C101.034 9.84089 101.367 9.82422 101.767 9.82422C102.184 9.82422 102.517 9.84089 102.767 9.87422C103.034 9.90755 103.242 9.99089 103.392 10.1242C103.542 10.2576 103.642 10.4492 103.692 10.6992C103.759 10.9492 103.792 11.2826 103.792 11.6992C103.792 12.1326 103.759 12.4742 103.692 12.7242C103.642 12.9742 103.542 13.1659 103.392 13.2992C103.242 13.4326 103.034 13.5242 102.767 13.5742C102.517 13.6076 102.184 13.6242 101.767 13.6242ZM99.9422 15.4992H103.567V28.9992H99.9422V15.4992Z" fill="black"/>
<path d="M91.9336 15.25C93.4503 15.25 94.5753 15.6333 95.3086 16.4C96.0586 17.15 96.4336 18.3667 96.4336 20.05V29H92.8086V20.725C92.8086 19.8083 92.6586 19.1583 92.3586 18.775C92.0586 18.3917 91.5253 18.2 90.7586 18.2C90.0253 18.2 89.4503 18.35 89.0336 18.65C88.6336 18.95 88.3503 19.4583 88.1836 20.175V29H84.5586V20.725C84.5586 19.8083 84.4086 19.1583 84.1086 18.775C83.8086 18.3917 83.2919 18.2 82.5586 18.2C81.8086 18.2 81.2503 18.3417 80.8836 18.625C80.5169 18.8917 80.2419 19.3583 80.0586 20.025V29H76.4336V15.5H80.0586V17.025C80.4253 16.425 80.9086 15.9833 81.5086 15.7C82.1253 15.4 82.9086 15.25 83.8586 15.25C84.8753 15.25 85.6919 15.4083 86.3086 15.725C86.9419 16.0417 87.4086 16.5167 87.7086 17.15C88.0753 16.4667 88.6169 15.9833 89.3336 15.7C90.0669 15.4 90.9336 15.25 91.9336 15.25Z" fill="black"/>
<path d="M71.0309 13.6242C70.6309 13.6242 70.2975 13.6076 70.0309 13.5742C69.7642 13.5242 69.5559 13.4326 69.4059 13.2992C69.2559 13.1659 69.1475 12.9742 69.0809 12.7242C69.0309 12.4742 69.0059 12.1326 69.0059 11.6992C69.0059 11.2826 69.0309 10.9492 69.0809 10.6992C69.1475 10.4492 69.2559 10.2576 69.4059 10.1242C69.5559 9.99089 69.7642 9.90755 70.0309 9.87422C70.2975 9.84089 70.6309 9.82422 71.0309 9.82422C71.4475 9.82422 71.7809 9.84089 72.0309 9.87422C72.2975 9.90755 72.5059 9.99089 72.6559 10.1242C72.8059 10.2576 72.9059 10.4492 72.9559 10.6992C73.0225 10.9492 73.0559 11.2826 73.0559 11.6992C73.0559 12.1326 73.0225 12.4742 72.9559 12.7242C72.9059 12.9742 72.8059 13.1659 72.6559 13.2992C72.5059 13.4326 72.2975 13.5242 72.0309 13.5742C71.7809 13.6076 71.4475 13.6242 71.0309 13.6242ZM69.2059 15.4992H72.8309V28.9992H69.2059V15.4992Z" fill="black"/>
<path d="M67.3508 29.0004H62.7508L57.6508 21.4004H56.7258V29.0004H52.9258V11.6504H56.7258V18.3254H57.6508L62.6508 11.6504H67.1008L60.7758 19.7004L67.3508 29.0004Z" fill="black"/>
</svg>
